<svg xmlns="http://www.w3.org/2000/svg" xmlns:xlink="http://www.w3.org/1999/xlink" viewBox="0 0 334 500"><linearGradient id="a"><stop offset="0" stop-color="#52ce63"/><stop offset="1" stop-color="#51a256"/></linearGradient><linearGradient xlink:href="#a" id="b" x1="153.56" x2="134.6" y1="47.29" y2="112.16" gradientTransform="scale(.76797326 1.3021287)" gradientUnits="userSpaceOnUse"/><linearGradient xlink:href="#a" id="c" x1="355.59" x2="336.6" y1="47.3" y2="112.2" gradientTransform="scale(.76820916 1.3017288)" gradientUnits="userSpaceOnUse"/><linearGradient id="d" x1="271.99" x2="271.99" y1=".61" y2="88.33" gradientTransform="scale(.69054461 1.4481324)" gradientUnits="userSpaceOnUse"><stop offset="0" stop-color="#8ae99c"/><stop offset="1" stop-color="#52ce63"/></linearGradient><linearGradient id="e" x1="198.42" x2="176.92" y1="215.04" y2="476.32" gradientTransform="scale(.95073861 1.0518138)" gradientUnits="userSpaceOnUse"><stop offset="0" stop-color="#ffe56c"/><stop offset="1" stop-color="#ffc63a"/></linearGradient><g fill="none" fill-rule="evenodd" transform="translate(-32 -22.77)"><path fill="url(#b)" d="M103.95 258.27c44.36-4.36 60.02-40.39 65.35-94.7 5.34-54.3-30.93-103.45-46.02-101.96-15.08 1.48-63.04 58.9-68.37 113.21-5.34 54.3 4.68 87.81 49.04 83.45z" transform="rotate(-38 137.96 147.1)"/><path fill="url(#c)" d="M275.88 258.27c44.36 4.36 53.16-29.26 47.83-83.57-5.34-54.3-52.08-111.61-67.17-113.1-15.08-1.48-52.57 47.55-47.23 101.86 5.34 54.3 22.2 90.45 66.57 94.81z" transform="rotate(52 240.03 189)"/><path fill="url(#d)" d="M188.37 216.88c39.94 0 50.95-38.26 50.95-97.9 0-59.65-37.37-118.1-50.95-118.1-13.58 0-52.05 58.45-52.05 118.1 0 59.64 12.1 97.9 52.05 97.9z" transform="rotate(7 8.98 277.8)"/><path fill="url(#e)" d="M184.47 501C267.6 501 335 476.85 335 367.35S267.6 168 184.47 168C101.35 168 34 257.85 34 367.35S101.35 501 184.47 501Z"/><ellipse cx="260.5" cy="335" fill="#eaadcc" rx="21.5" ry="10"/><ellipse cx="102.5" cy="329" fill="#eaadcc" rx="21.5" ry="10" transform="rotate(7 102.5 329)"/><path stroke="#000" stroke-linecap="round" stroke-linejoin="round" stroke-width="6" d="M198.25 331.46c-6.47 5.26-13.95 7.4-22.42 6.43-8.48-.96-14.76-4.48-18.85-10.55"/><path fill="#000" d="M114.98 279.42a21.43 21.43 0 0 1 15.42 5.76 21.43 21.43 0 0 1 6.82 14.97 21.43 21.43 0 0 1-5.76 15.42 21.43 21.43 0 0 1-14.98 6.82 21.43 21.43 0 0 1-15.41-5.76 21.43 21.43 0 0 1-6.82-14.98 21.43 21.43 0 0 1 5.76-15.4 21.43 21.43 0 0 1 14.97-6.83Z"/><path fill="#fff" d="M116.11 297.39a7 7 0 1 0-14 .49 7 7 0 0 0 14-.5Z"/><path fill="#000" d="M245.25 284.87a21.43 21.43 0 0 1 15.42 5.77 21.43 21.43 0 0 1 6.82 14.97 21.43 21.43 0 0 1-5.76 15.41 21.43 21.43 0 0 1-14.98 6.83 21.43 21.43 0 0 1-15.4-5.76 21.43 21.43 0 0 1-6.83-14.98 21.43 21.43 0 0 1 5.76-15.41 21.43 21.43 0 0 1 14.97-6.83Z"/><g fill="#fff"><path fill-rule="nonzero" stroke="#fff" stroke-width="3" d="M134.22 300.26a18.5 18.5 0 1 1-36.97 1.3 18.5 18.5 0 0 1 36.97-1.3Zm6-.21a24.5 24.5 0 1 0-48.97 1.71 24.5 24.5 0 0 0 48.97-1.71ZM264.5 305.72a18.5 18.5 0 1 1-36.98 1.29 18.5 18.5 0 0 1 36.97-1.3Zm5.99-.21a24.5 24.5 0 1 0-48.97 1.7 24.5 24.5 0 0 0 48.97-1.7Z"/><path d="M246.38 302.85a7 7 0 1 0-14 .49 7 7 0 0 0 14-.5z"/></g><g stroke-linecap="round" stroke-width="11"><g stroke="#ecb732"><path d="m70.5 377.5 74 77M134.5 386.5l-47 50"/></g><g stroke="#ecb732"><path d="m297.5 377.5-74 77M233.5 386.5l47 50"/></g><g stroke="#ffc73b"><path d="m214.5 207.5-49 49M204.5 256.5l-49-49"/></g></g></g><g fill="none"><path fill="#635994" d="M332.8 382.92v94.9a19.62 19.97 0 0 1-19.64 19.98h-103.6a19.62 19.97 0 0 1-19.64-19.97V372.38a19.62 19.97 0 0 1 19.65-19.97h93.17a17.9 17.9 0 0 1 12.66 5.3l12.2 12.34a18.51 18.51 0 0 1 5.2 12.87Z"/><path fill="#e6e6e6" d="M210.33 435.49H312.4v62.31H210.33Z"/><path fill="#f8312f" d="M210.33 432.9a7.65 7.79 0 0 1 7.66-7.8h86.75a7.65 7.79 0 0 1 7.66 7.8v7.78H210.33Z"/><path fill="#321b41" d="M302.78 352.4a18.01 18.33 0 0 1 9.62 2.87v45.17a9.02 9.02 0 0 1-8.94 9.1h-84.2a8.92 9.07 0 0 1-8.93-9.1V352.4Z"/><path fill="#e6e6e6" d="M295.25 404.33h-52.46a7 7 0 0 1-6.94-7.06V359c0-3.63 2.9-6.6 6.48-6.6h59.86v44.87a7 7 0 0 1-6.94 7.06Z"/><path fill="#321b41" d="M292.14 399.14h-10.52a5 5.08 0 0 1-4.95-5.1V362.7c0-2.8 2.23-5.1 4.95-5.1h10.52a5.04 5.04 0 0 1 4.95 5.1v31.4a4.98 5.07 0 0 1-4.95 5.04Z"/></g></svg>